<?xml version="1.0" standalone="no"?>
<!DOCTYPE svg PUBLIC "-//W3C//DTD SVG 20010904//EN"
 "http://www.w3.org/TR/2001/REC-SVG-20010904/DTD/svg10.dtd">
<svg version="1.0" xmlns="http://www.w3.org/2000/svg"
 width="582.000000pt" height="340.000000pt" viewBox="0 0 582.000000 340.000000"
 preserveAspectRatio="xMidYMid meet">

<g transform="translate(0.000000,340.000000) scale(0.100000,-0.100000)"
fill="#000000" stroke="none">
<path d="M3056 3358 c-13 -13 -297 -486 -631 -1053 -334 -566 -626 -1055 -648
-1085 -84 -111 -163 -172 -292 -222 -53 -20 -77 -23 -200 -23 -161 0 -228 14
-345 72 -93 47 -211 160 -256 248 -115 221 -124 484 -24 690 73 150 175 252
325 325 136 66 177 70 664 70 l431 0 30 28 c35 32 300 493 300 522 0 20 -4 20
-634 20 -696 0 -708 -1 -890 -62 -362 -121 -655 -403 -790 -760 -56 -149 -70
-240 -71 -438 0 -258 32 -400 141 -626 86 -178 220 -337 367 -437 120 -81 304
-152 477 -184 134 -25 478 -25 604 0 134 27 264 78 360 141 100 65 154 116
217 206 77 108 1452 2559 1445 2575 -5 13 -46 15 -280 15 -271 0 -275 0 -300
-22z"/>
<path d="M4244 2925 c-198 -30 -378 -113 -504 -232 -43 -41 -98 -104 -122
-141 -57 -86 -1419 -2507 -1425 -2533 -5 -18 3 -19 284 -19 264 0 291 2 305
18 8 9 287 478 619 1042 332 564 627 1055 654 1091 92 122 199 193 348 231
171 42 403 -3 553 -108 125 -88 215 -225 254 -385 25 -104 27 -293 5 -378 -62
-241 -254 -438 -490 -503 -75 -20 -107 -22 -538 -27 l-459 -6 -21 -25 c-40
-47 -299 -511 -293 -525 8 -22 1188 -22 1316 -1 164 27 261 59 401 133 289
152 509 412 613 725 43 129 54 195 62 358 20 398 -178 844 -471 1065 -145 109
-366 194 -580 225 -97 13 -413 11 -511 -5z"/>
</g>
</svg>
